<svg width="21" height="20" viewBox="0 0 21 20" fill="none" xmlns="http://www.w3.org/2000/svg">
<path d="M4.5 2C3.70435 2 2.94129 2.31607 2.37868 2.87868C1.81607 3.44129 1.5 4.20435 1.5 5V5.3015L10.5 10.148L19.5 5.303V5C19.5 4.20435 19.1839 3.44129 18.6213 2.87868C18.0587 2.31607 17.2956 2 16.5 2H4.5ZM19.5 7.0055L10.8555 11.66C10.7462 11.7188 10.6241 11.7496 10.5 11.7496C10.3759 11.7496 10.2538 11.7188 10.1445 11.66L1.5 7.0055V14C1.5 14.7956 1.81607 15.5587 2.37868 16.1213C2.94129 16.6839 3.70435 17 4.5 17H16.5C17.2956 17 18.0587 16.6839 18.6213 16.1213C19.1839 15.5587 19.5 14.7956 19.5 14V7.0055Z" fill="white"/>
</svg>
